<?xml version="1.0" encoding="UTF-8"?>
<svg id="Layer_1" xmlns="http://www.w3.org/2000/svg" version="1.1" viewBox="0 0 848 864">
  <!-- Generator: Adobe Illustrator 30.1.0, SVG Export Plug-In . SVG Version: 2.1.1 Build 136)  -->
  <path d="M222.59,305.74c-3.71-.27-6.96-.48-9.75-.65-10.14-.61-20.09-3.6-29.84-8.97-4.53-2.49-11.59-6.71-14.92-10.71-2.63-3.18-4.51-5.62-5.64-7.32-8.12-12.3-8.34-28.83-2.28-41.98,3.13-6.8,6.07-11.93,8.81-15.4,6.42-8.12,13.04-14.7,21.15-22,3.63-3.27,6.74-5.87,9.32-7.78,4.47-3.31,8.6-7.09,13.82-10.42,7.32-4.67,13.39-9.36,21.29-13.95,6.44-3.74,11.17-6.28,15.72-9.81,1.39-1.07,2.8-1.95,4.24-2.62,1.4-.65,5.17-2.62,11.32-5.9.29-.16.5-.44.57-.76.55-2.58.79-5.32,1.6-7.97,2.32-7.53,5.22-14.74,8.69-21.61,3.24-6.41,6.99-11.23,11.35-17.12,2-2.7,5.07-4.83,7.28-7.05,4.57-4.57,8.15-8.36,13.25-12.22,5.33-4.04,9.58-7.02,12.75-8.93.55-.33,3.41-1.87,8.58-4.62,4.7-2.49,8.06-3.47,12.3-5.48,6.09-2.89,12.53-4.21,18.93-6.1,6.67-1.97,15.89-2.63,24.57-2.65,15.67-.03,26.44-.67,38.1,3.26,6.26,2.1,10.66,3.16,15.64,5.98,8.03,4.56,12.62,7.3,13.75,8.22,3.03,2.44,6.36,5.35,9.99,8.73,2,1.87,2.99,1.29,5.89.92,11.65-1.48,25.84-3.98,36.96-4.72,14.73-.99,30.46-1.05,47.19-.2,5.07.25,10.55.97,16.42,2.14,9.39,1.87,14.8,2.99,16.23,3.36,11.97,3.13,22.35,9.97,31.15,20.54.45.55,1.83,3.13,4.14,7.76,3.38,6.79,4.17,15.3,3.77,22.59-.2,3.52-1.02,7.03-1.49,10.11-.05.28.12.56.39.66,11.1,4.05,19.89,8.13,26.36,12.26,1.51.97,5.6,4.14,12.29,9.52,4.7,3.79,8.38,7.44,11.03,10.95,4.94,6.53,8.48,12.4,10.62,17.61,6.45,15.66,7.4,32.11,2.85,49.34-1.17,4.43-2.15,7.54-2.92,9.35-2.07,4.84-4.87,10.43-8.41,16.77-2.18,3.9-4.35,7.15-6.51,9.75-1.51,1.81-3.1,3.88-4.79,6.21-3.59,4.97-9.52,10.57-12.79,14.59-1.94,2.39-4.61,5.16-8.01,8.29-5.13,4.72-9.2,8.36-12.22,10.93-.2.17-.26.45-.15.69,9.07,19.37,14.65,37.18,16.74,53.43.95,7.42,1.29,16.64,1.01,27.66-.23,8.99-1.33,18.16-3.29,27.49-3.11,14.79-7.48,28.41-13.12,40.86-1.97,4.35-3.81,7.92-5.53,10.72-3.18,5.18-5.67,10.38-9.34,15.66-7.31,10.49-15.2,20.19-23.67,29.08-6.58,6.91-12.29,12.11-17.14,15.6-7.18,5.19-12.9,10.1-20.78,14.71-.93.55-1.86,1.26-2.79,2.14-.1.1-.11.26-.01.35l8.49,8.19c.16.16.42.16.58,0,4.16-4.15,6.74-6.54,7.73-7.15,4.91-3.01,10.32-4.52,16.21-4.52,27.15,0,43.39-.03,48.72-.08,4.87-.04,8.57.41,11.12,1.34,15.85,5.82,22.25,22.29,14.9,37.46-1.47,3.04-4.87,7.04-10.18,12-4.23,3.95-11.39,11.07-21.46,21.37-.21.21-.21.55-.01.76,5.19,5.58,13.66,14.63,25.4,27.15,1.81,1.93,3.21,3.51,4.18,4.72,1.79,2.24,3.88,4.29,5.12,6.6,5.93,11.07,4.85,21.65-3.23,31.72-1.55,1.93-3.55,3.4-5.99,4.4-.37.15-.5.6-.27.93,2.91,4.14,4.39,8.84,4.42,14.09.04,6.23.04,12.47.01,18.73-.03,4.53-1.16,8.64-3.41,12.32-.16.27-.18.6-.04.87,2.15,4.26,3.28,7.81,3.38,10.64.03.85.09,11.09.17,30.72.04,9.57-3.68,17.05-11.15,22.45-3.97,2.87-8.96,4.29-14.95,4.28-29.42-.05-63-.05-100.75,0-4.04,0-7.95-.9-11.73-2.7-2.12-1.01-4.11-2.84-6.29-4.29-.62-.41-1.43-.39-2.02.06l-5.04,3.85c-.21.17-.44.3-.69.4-4.29,1.75-7.79,2.63-10.48,2.63-57.82.04-92.48.04-103.99,0-6.29-.03-11.73-2.06-16.31-6.08-.27-.24-.68-.23-.94.02-6.64,6.39-13.92,6.13-24.23,6.12-13.19-.02-29.53-.03-49.02-.04-1.57-.01-4.11-.55-7.62-1.63-6.98-2.15-13.39-9.01-17.7-14.74-.12-.16-.36-.14-.46.03l-4.56,7.9c-.09.15-.2.29-.35.4-2.11,1.59-3.56,2.72-4.37,3.39-6.51,5.42-14.77,4.74-22.95,4.71-5.62-.03-10.21-1.1-13.78-3.23-5.06-3.02-11.03-8.87-15.47-12.09-4.83-3.51-10.63-8.23-17.42-14.16-4.22-3.69-6.62-10.36-7.67-16.06-.11-.59-.17-5.26-.16-14.02,0-7.99,0-28.05,0-60.17,0-4.31.19-7.17.58-8.58,1.75-6.28,4.45-12.52,10.69-15.97.3-.16.34-.58.07-.8-.78-.63-2.13-1.99-4.04-4.1-2.61-2.87-4.64-6.48-6.09-10.83-.87-2.59-1.29-6.66-1.27-12.21.09-23.94.09-43.56,0-58.87-.04-5.91.48-10.45,1.55-13.62,2.82-8.31,8.73-13.91,17.74-16.8,1.95-.63,3.87-.95,5.76-.97,4.19-.05,15.77-.06,34.76-.04,6.17.01,13.35,2.29,17.69,6.81,1.04,1.08,2.17,2.16,3.39,3.25.31.27.57.57.8.92,2.95,4.51,4.57,9.43,4.86,14.75.03.57.03,13.9.02,40,0,.83.08,1.64.23,2.45.09.47.5.82.99.82h55.68c.18,0,.33-.15.33-.33v-45.26c0-.3-.18-.57-.45-.69-7.19-3.07-13.63-5.98-19.32-8.73-8.59-4.16-17.82-9.38-27.68-15.65-4.22-2.69-7.53-5.13-9.94-7.33-4.09-3.74-8.77-6.89-12.84-10.61-16.03-14.64-29.41-31.25-40.14-49.82-3.27-5.66-5.14-10.29-8.41-17.05-3.87-7.99-7.06-17.37-9.58-28.14-2.75-11.74-4.2-19.2-5.19-28.93-.72-7.11-.33-13.3-.39-21.79-.03-2.97.2-6.41.67-10.34,1.95-16.18,5.77-31.81,11.46-46.89,1.2-3.19,5.18-11.42,11.95-24.7.12-.23-.04-.51-.3-.52ZM291.76,157.21c24.12-10.32,46.9-19.43,68.35-27.34,3.01-1.11,5.22-1.88,6.61-2.31,6.1-1.87,10.97-4.13,16.58-5.51,4.39-1.08,9.76-3.41,15.09-4.75,4.25-1.07,9.54-2.63,15.86-4.7.24-.08.37-.35.27-.59-.72-1.77-1.61-3.38-2.68-4.85-2.55-3.51-5.18-6.89-7.87-10.12-.21-.25-.04-.63.29-.64,8.48-.19,16.05,4.78,21.55,11.02.66.75,1.68,1.07,2.65.83l20.95-5.11c.29-.07.4-.42.21-.65-10.98-12.62-25.56-20.8-42.07-23.41-22.98-3.62-47.66,1.55-68.1,12.38-16.43,8.71-29.41,21.01-38.92,36.9-2.32,3.88-3.49,6.98-5.47,11.69-2.15,5.09-3.4,10.71-3.75,16.84-.01.24.23.42.45.32ZM485.28,250.12c27.33,9.49,52.81,24.08,76.44,43.76.29.24.7.25,1.01.04l11.76-8.1c.26-.17.29-.54.06-.76-18.39-17.55-40.01-31.48-63.14-41.95-11.09-5.03-19.2-8.4-24.33-10.13-4.83-1.63-9.13-3.26-12.9-4.87-.27-.12-.27-.51,0-.63,21.88-9.73,42.68-20.46,62.39-32.19,15-8.93,28.99-19.09,41.97-30.49,9.22-8.11,17.68-18.17,21.25-30,2.53-8.4-1.87-18.63-9.09-23.21-9.18-5.82-21.01-8.83-31.95-9.83-18.61-1.68-37.4-1.66-56.37.05-11.88,1.08-22.95,3.26-35.35,5.26-7.31,1.18-16.17,3.64-25.59,5.6-3.49.73-7.18,1.72-11.07,2.97-3.57,1.16-9.16,1.97-13.42,3.34-4.8,1.55-9.26,2.82-13.37,3.8-5.01,1.21-9.43,3.22-14.12,4.36-3,.73-6.52,1.84-10.56,3.31-6.16,2.24-10.61,3.26-16.9,5.8-1.21.49-4.01,1.46-8.4,2.91-8.55,2.82-22.89,8.47-43.02,16.95-18.34,7.73-35.89,16.43-52.64,26.1-23.06,13.31-44.77,28.2-62.88,46.84-4.77,4.9-8.44,9.97-11.01,15.21-3.01,6.13-4.61,15.86-.36,21.55,5.73,7.67,15.41,11.46,24.04,12.95,10.96,1.89,22.64,2.56,35.04,1.99,11.95-.54,23.32-1.15,34.1-1.84.4-.03.6.46.31.73-9.05,8.34-17.41,17.9-25.06,28.67-13.22,18.63-21.94,39.48-26.16,62.57-2.65,14.51-2.76,30.71-.33,48.61.69,5.07,2.4,10.17,3.54,15.41.7,3.19,1.85,6.95,3.45,11.29,4.38,11.87,9.21,22.03,14.48,30.47,19.25,30.81,45.39,54.17,78.4,70.08,9.75,4.69,17.99,8.01,24.74,9.95,9.71,2.78,16.02,4.82,24.46,6.23,11.21,1.87,23.72,4.4,36.3,4.73,11.47.31,21.47.25,30-.16,11.75-.57,24.07-3.14,33.89-4.88,5.67-1,10.55-2.8,15.49-4.08,3.68-.95,7.5-2.17,11.47-3.64,11.87-4.41,22.75-9.46,32.64-15.16,24.77-14.28,45.23-33.16,61.37-56.64,6.97-10.13,12.59-20.54,16.88-31.21,4.84-12.06,8.07-23.44,9.69-34.13,1.28-8.49,1.75-18.43,1.41-29.84-.31-10.12-1.79-19.96-4.45-29.51-3.97-14.24-9.65-27.12-17.06-38.63-.26-.4-.8-.53-1.21-.29l-12.32,7.11c-.3.18-.42.56-.27.88,1.74,3.71,5.88,10.05,7.91,14.56,4.23,9.41,7.21,17.84,8.95,25.31,1.56,6.71,2.41,14.02,2.56,21.94.01.26-.21.48-.47.48h-47.59c-.43,0-.8-.34-.83-.77-.8-10.25-2.62-21.31-5.46-33.16-.43-1.83-1.16-4.16-2.19-7.01-.09-.25-.36-.37-.6-.27l-12.22,5.07c-.43.18-.66.64-.56,1.1,2.84,12.29,4.82,23.78,5.93,34.48.03.26-.18.49-.44.49h-49.1c-.41,0-.75-.31-.79-.71l-1.62-15.8c-.02-.23-.24-.38-.47-.33l-12.98,3.17c-.41.1-.68.49-.63.91l1.23,12.1c.04.38-.26.72-.65.72h-47.56c-.27,0-.49-.22-.49-.49v-7.69c0-.23.16-.43.38-.48,3.28-.77,5.98-1.35,8.1-1.74,6.87-1.26,14.15-3.94,19.82-5.12,6.98-1.45,12.97-3.93,20.6-5.96,4.54-1.21,8.3-2.97,12.68-4.23,2.71-.78,5.89-1.85,9.53-3.2,9.73-3.61,17.39-6.56,22.96-8.85,11.33-4.65,23.47-10.33,36.42-17.05,19.53-10.13,37.53-21.89,53.99-35.27,11.39-9.26,21.82-19.66,31.29-31.19,7.02-8.55,12.33-17.93,15.93-28.14,2.71-7.67,2.74-12.75,2.77-21.04.06-14.69-9.58-29.46-21.2-37.52-7.49-5.2-14.85-9.16-22.08-11.87-3.6-1.35-6.64-2.47-9.12-3.35-5.83-2.07-11.52-2.86-18.06-4.37-.39-.09-.8.06-1.04.38l-7.64,10.06c-.36.47-.14,1.15.42,1.33,6.52,2.12,13.26,4.75,20.22,7.88,9.75,4.39,20.8,11.96,25.63,20.83,1.89,3.47,3.23,7.53,4,12.16.59,3.53.36,7.77-.69,12.7-2.02,9.51-6.41,18.48-13.18,26.91-18.99,23.7-45.31,40.5-72.11,54.37-17.52,9.07-35.57,17.77-54.16,26.08-4.98,2.23-10.72,4.39-15.97,7.03-.51.26-1.09-.17-.99-.73.14-.8.69-2.17,1.23-2.81,2.61-3.15,4.02-6.51,4.23-10.08.02-.37.31-.67.67-.71,3.14-.37,7.37-.87,12.7-1.5,3.62-.43,8.18-1.63,13.69-3.62,7.88-2.85,14.93-7.91,22.12-13.32.49-.37.63-1.05.31-1.58-5.47-9.11-11.35-17.72-17.64-25.83-6.54-8.43-15.25-17.47-26.12-27.14-1.65-1.47-3.82-2.47-5.08-4.2-.11-.15.04-.34.21-.28ZM583.13,257.39c3.51-2.99,7.15-6.27,10.9-9.85,3.01-2.87,6.82-7.57,11.44-14.08,1.45-2.05,2.9-5.26,4.35-9.63,2.68-8.08-2.51-13.01-9.04-16.59-4.68-2.56-11.98-5.64-21.89-9.24-.33-.12-.69-.1-1,.05-2.69,1.28-5.18,2.82-7.46,4.63-4.99,3.94-12.33,7.83-16.34,10.95-5.83,4.53-12.41,7.24-19.6,11.63-.16.1-.16.33-.01.43,3.75,2.48,6.68,4.22,8.78,5.22,8.55,4.04,16.74,9.71,24.08,15.36,3.88,2.99,7.59,5.28,11.52,7.85,1.43.94,2.34,2.26,3.53,3.27.21.18.53.18.74,0ZM449.26,639.17l-9.33-13.55c-.52-.76-1.38-1.21-2.29-1.21h-44.65c-.18,0-.33-.14-.33-.32v-15.14c0-.37.3-.67.67-.67,25.62.07,39.34.11,41.17.1,1.55-.01,2.9.47,4.07,1.44,6.19,5.14,10.29,8.54,12.29,10.19,1.68,1.41,3.09,2.11,4.22,2.11.65.01,10.42-.04,29.31-.13.31-.01.56-.26.56-.57v-16.77c0-.68-.29-1.33-.8-1.77l-25.99-22.59c-.32-.28-.73-.43-1.15-.43h-98.7c-.23,0-.41.18-.41.41v69.58c0,.34.14.67.39.91l30.75,29.67c.3.28.69.44,1.1.44h98.23c.23,0,.41-.18.41-.4v-30.41c0-.27-.21-.48-.48-.48h-81.45c-.6,0-1.17-.27-1.54-.73l-5.1-6.36c-.11-.14-.24-.27-.37-.38l-1.5-1.24c-.37-.31-.16-.91.32-.91h50.18c.41,0,.65-.46.42-.79ZM638.97,579.9h-52.74c-.33,0-.65.11-.9.32-1.1.89-2.36,2.08-3.79,3.57-11.9,12.35-21.96,22.71-30.17,31.08-2.51,2.56-5.65,3.31-9.41,2.24-.48-.14-.81-.57-.81-1.06v-35.36c0-.42-.34-.76-.76-.76h-37.25c-.22,0-.39.18-.39.4v80.96c0,.21.1.41.26.54l24.52,18.61c.37.28.82.43,1.28.43h10.89c.35,0,.63-.28.63-.63v-40.49c0-.35.29-.64.64-.64h11.5c.44,0,.86.19,1.15.51,13.1,14.39,24.86,27.37,35.28,38.94,1.25,1.39,3.04,2.08,5.37,2.08,20.49-.03,36.69-.06,48.62-.08.41,0,.64-.48.38-.8-2.67-3.28-4.62-5.86-7.31-8.74-20.18-21.55-33.84-36.15-40.98-43.8-.52-.56-.51-1.44.04-1.99l44.35-44.35c.36-.36.11-.98-.4-.98ZM213.87,580.49v68.9c0,.49.2.96.55,1.3,6.58,6.4,16.02,15.7,28.31,27.89,1.49,1.47,3.4,2.2,5.75,2.2,35.88-.01,67.4-.01,94.55,0,.28,0,.5-.22.5-.5v-30.95c0-.29-.23-.52-.52-.52h-75.06c-.99,0-1.95-.38-2.66-1.07l-13.76-13.27c-.15-.15-.27-.33-.36-.52-.47-1.03-.7-2.44-.7-4.21,0-29.3-.03-45.76-.04-49.37,0-.24-.19-.44-.43-.44h-35.58c-.3,0-.55.25-.55.55ZM357.78,793.1c.5,0,.74-.61.39-.96l-33.02-33.02c-.19-.19-.19-.51,0-.7l19.07-19.06c.38-.39.6-.92.6-1.47v-21.41c0-.57-.25-1.11-.69-1.48-8.66-7.19-16.69-13.81-24.08-19.86-1.21-.99-1.86-1.81-3.55-1.81-37.2,0-71.25.01-102.14.04-.28,0-.5.23-.5.51v74.91c0,.41.18.79.49,1.04l28.55,22.84c.12.09.26.14.4.14l7.82.17c.42.01.77-.34.77-.76v-31.66c0-.38.3-.68.68-.68,6.88.01,12.56.03,17.05.07,1.87.02,3.36-.15,4.7,1.3,13.13,14.23,22.76,24.72,28.9,31.46.22.25.54.39.87.39h53.69ZM505.49,693.99v76.41c0,.2.09.39.25.51l26.99,21.6c.46.38,1.04.58,1.63.58h99.08c.28,0,.51-.23.51-.52v-30.63c0-.41-.33-.74-.74-.74-40.88-.06-65.28-.04-73.2.05-1.97.03-3.22-.17-3.75-.59-3.01-2.36-7.81-6-14.4-10.93-.32-.24-.51-.62-.51-1.02v-26.08c0-.4.32-.72.72-.72h45.51c.69,0,1.37.23,1.91.66,5.41,4.27,10.14,8.11,14.19,11.52,1.63,1.38,2.71,1.71,4.82,1.72,9.43.03,17.68.03,24.75-.01.33,0,.6-.27.6-.61v-17.51c0-.55-.24-1.07-.66-1.42-3.73-3.11-11.67-10.17-23.81-21.18-1.37-1.24-2.74-1.86-4.1-1.86-58.79-.02-91.82,0-99.07.05-.4,0-.72.32-.72.72ZM403.98,752.58h50.2c.48,0,.78-.52.55-.94-1.75-3.13-4.69-7.38-8.81-12.77-1.06-1.39-2.36-2.08-3.91-2.09-9.04-.07-22.74-.07-41.1-.02-.24,0-.44-.2-.44-.44v-13.93c0-.29.24-.53.53-.53,7.43.05,19.44.1,36.02.14,1.97.01,3.62.53,4.95,1.56,5.29,4.11,9.97,7.84,14.04,11.19.31.26.66.46,1.04.61.96.37,2.78.55,5.46.54,12.27-.03,21.46-.06,27.59-.09.4,0,.73-.33.73-.73v-16.25c0-.35-.16-.68-.43-.91-6.41-5.27-14.74-12.25-24.98-20.94-2.44-2.07-2.85-3.08-6.65-3.07-4.96.01-36.37.02-94.24.03-.31,0-.57.26-.57.57v72.2c0,1.09.49,2.12,1.33,2.82l28.06,23.15c.32.27.73.41,1.14.41h99.59c.39,0,.7-.31.7-.7v-30.01c0-.38-.3-.68-.68-.68h-82.46c-.65,0-1.26-.28-1.69-.77l-6.39-7.43c-.31-.36-.06-.92.42-.92Z"/>
  <path d="M203.88,250.73c-.23-.48-.2-1.01.1-1.6,1.22-2.37,2.7-4.35,4.45-5.96,4.93-4.54,8.63-7.67,11.1-9.39,15.17-10.58,30.21-19.7,45.13-27.35,22.45-11.52,42.94-21.2,61.47-29.03,23.75-10.05,42.93-17.51,57.54-22.4,5.72-1.91,9.04-3.03,9.96-3.38,4.71-1.77,8.03-2.88,9.96-3.32,5.03-1.15,9.9-3.46,15.62-4.81,6.2-1.46,13.46-4.28,19.78-5.38,6.26-1.08,13-3.4,19.74-4.6,14.35-2.56,24.57-4.84,38.7-6.32,19.83-2.08,39.45-3.37,59.32-2.68,6.18.21,14.51.56,20.1,3.27.65.31.93,1.09.63,1.74-.6,1.32-1.68,1.92-3.24,1.8-12.04-.91-23.82-1.58-36.99-.68-10.87.74-22.46,1.81-34.77,3.22-8.31.95-18.24,3.19-26.72,4.37-4.13.57-7.83,1.28-11.12,2.12-8.84,2.26-16.17,3.22-24.18,5.6-3.29.97-7.66,2.08-13.11,3.33-3.97.91-9.19,3.16-12.74,3.8-1.31.23-5.79,1.57-13.45,4.01-22.03,7-42.86,14.61-62.51,22.82-24.47,10.23-48.6,21.51-72.4,33.86-21.35,11.07-41.58,23.54-60.68,37.4-.58.42-1.39.2-1.69-.44Z"/>
  <path d="M313.33,248.34c-.29.06-.49-.28-.3-.5,4.28-5.08,9.26-9.45,14.95-13.11,10.3-6.63,19.58-11.93,27.83-15.91,11.27-5.43,20.5-9.43,27.69-12.01,4.73-1.69,7.38-2.66,7.95-2.89,5.91-2.38,11.61-3.76,17.26-5.64,6.8-2.26,11.69-2.82,19.91-4.61,12.75-2.77,25.58-3.42,39.56-3.11,9.24.2,15.38.54,22.89,3.47.67.26.91,1.09.47,1.67-1.85,2.43-6.43,2.98-9.27,2.75-10.43-.83-19.52-.98-27.26-.43-7.4.53-16.85,1.74-28.36,3.64-2.89.48-5.79,1.15-8.7,2-6.44,1.88-13.08,3.01-19.13,5.33-4.29,1.63-8.72,2.82-13.8,4.75-22.98,8.71-45.16,19.55-66.54,32.51-1.75,1.05-3.46,1.75-5.15,2.09Z"/>
  <path d="M467.51,314.82c-11.85,1.24-24.2,1.82-37.06,1.74-.19,0-.35-.16-.35-.35v-69.68c0-.36.4-.57.7-.37,2.13,1.44,4.19,3.32,6.16,5.64,11.7,13.76,20.33,29.86,26.53,47.09,1.99,5.52,2.86,10.56,4.39,15.38.08.26-.1.52-.37.55Z"/>
  <path d="M415.85,246.82c.27-.14.59.06.59.37v68.83c0,.3-.24.55-.54.55-12.12.13-24.13-.2-36.03-1.01-.26-.02-.45-.27-.38-.52,1.91-7.2,2.83-11.81,4.99-16.67,1.76-3.97,3.28-8.94,5.63-14.01,3.85-8.29,8.48-16.34,13.9-24.15,3.23-4.65,6.65-8.71,10.26-12.18.59-.57,1.12-.98,1.58-1.21Z"/>
  <path d="M454.86,249.66c23.57,12.86,42.9,30.68,58.01,53.47,1.24,1.87,2.1,3.13,2.59,3.76.18.24.07.59-.22.68-10.45,3.19-21.57,4.1-32.44,5.81-.4.06-.78-.2-.87-.6-.65-2.82-1.18-6.4-2.25-9.5-2.58-7.52-3.8-12.68-6.5-19.25-2.13-5.2-3.54-8.53-4.23-9.98-3.79-8.07-8.64-16.02-14.56-23.84-.24-.32.12-.74.47-.55Z"/>
  <path d="M390.62,252.29c-.01.08-1.4,1.68-1.75,2.27-6.03,10.15-11.16,20.56-15.37,31.22-1.2,3.03-2.13,5.69-2.78,7.96-1.41,4.92-3.34,9.44-4.33,14.42-.55,2.77-.95,4.91-1.22,6.43-.05.28-.31.48-.6.45l-33.03-3.33c-.19-.02-.29-.22-.2-.38,10.1-17.39,22.67-32.57,37.7-45.53,6.19-5.34,13.37-10.62,21.05-13.9.27-.11.56.1.53.39Z"/>
  <path d="M356.77,255.59c.24-.09.43.23.24.4-16.32,14.67-30.04,32.07-41.16,52.21-.36.65-1.09.99-1.81.84-6.78-1.39-13.32-2.64-19.61-3.76-4.45-.78-8.79-2.16-13.64-3.55-.4-.11-.52-.62-.22-.9,8.23-7.82,17.09-14.8,26.58-20.93,15.67-10.12,32.21-18.22,49.62-24.31Z"/>
  <path d="M307.04,322.97c.37.09.56.49.39.82-1.22,2.41-2.61,4.7-3.44,7.01-2.33,6.44-5.05,12.03-6.58,18.4-1.22,5.12-3.36,10.75-4.3,16.45-1.25,7.57-2.24,15.4-2.96,23.51-.03.35-.32.62-.68.62h-49.23c-.3,0-.54-.24-.55-.54-.11-7.34.82-14.61,2.79-21.8,1.17-4.27,2.72-10.66,4.62-15.51,5.22-13.35,12.18-25.86,20.88-37.53.41-.54,1.1-.79,1.75-.62,5.26,1.39,13.69,3.65,25.28,6.78,3.73,1.01,8.15,1.51,12.03,2.41Z"/>
  <path d="M305.75,389.08c-.63.12-1.2-.42-1.11-1.06,1.55-10.95,3.57-23.14,7.07-34.13,2.63-8.25,5.46-15.73,8.48-22.44.88-1.95,1.89-3.86,3.02-5.74.17-.29.49-.45.82-.41l36.41,3.66c.53.05.91.55.82,1.08-2.55,15.9-4.9,32.25-5.3,48.91,0,.22-.17.41-.39.45-6.78,1.33-13.9,3.27-21.46,4.61-17.23,3.07-26.69,4.76-28.36,5.07Z"/>
  <path d="M470.93,329.37l1.54,15.01c.03.37-.18.7-.52.82l-40.83,14.09c-.5.18-1.03-.2-1.03-.73v-26.96c0-.42.32-.76.74-.78l39.28-2.15c.41-.02.77.29.82.7Z"/>
  <path d="M370.77,375.27c.73-16.89,2.57-29.71,5.7-45.4.03-.17.19-.3.38-.3l38.94,1.11c.38.01.68.32.68.7v31.46c0,.23-.15.44-.37.51-8.41,2.81-19.77,6.19-34.08,10.14-1.44.39-4.99,1.16-10.64,2.3-.32.07-.63-.19-.61-.52Z"/>
  <path d="M393.61,389.4l21.69-5.29c.41-.1.8.21.8.63v4.35c0,.39-.32.71-.71.71h-21.73c-.1,0-.19-.08-.2-.18-.02-.1.05-.2.15-.22Z"/>
  <path d="M239.66,404.34c-.01-.23.18-.42.41-.42h50.02c.17,0,.31.13.33.29.87,7.95,1.77,19.84,3.99,28.98,1.74,7.16,3.34,12.98,4.8,17.47,1.87,5.75,3.94,11.23,6.19,16.46.15.36-.08.76-.46.81-2.86.37-5.91.98-9.16,1.85-7.43,1.98-16.61,4.74-27.56,8.29-.77.25-1.61-.02-2.08-.67-7.59-10.37-13.64-22.21-18.53-34.82-2.25-5.82-3.43-11.31-5.17-17.73-1.66-6.12-2.59-12.96-2.78-20.51Z"/>
  <path d="M304.92,404.5c-.04-.33.22-.61.55-.61h49.51c.26,0,.47.21.48.48.02,17.28,1.85,34.78,5.48,52.51.14.65-.3,1.27-.95,1.37l-39.18,5.99c-.33.05-.64-.14-.76-.45-1.51-4.03-2.62-6.87-3.35-8.51-2.54-5.73-3.79-11.38-5.62-16.77-1.01-3-1.75-5.75-2.2-8.24-1.71-9.37-3.03-17.96-3.96-25.77Z"/>
  <path d="M375.62,457.14c-3.67-17.33-5.44-34.9-5.31-52.69.01-.32.27-.58.59-.58h45.1c.25,0,.46.21.46.46v50.51c0,.33-.25.59-.58.61l-39.64,2.17c-.3.02-.56-.19-.62-.48Z"/>
  <path d="M479.08,404.49c-.31,15.57-1.83,31.16-4.55,46.75-.11.65-.64,2.43-1.58,5.34-.09.27-.35.45-.64.44l-41.87-1.83c-.21-.01-.37-.18-.37-.39v-50.31c0-.34.27-.61.61-.61h47.79c.34,0,.62.27.61.61Z"/>
  <path d="M543.28,403.84c.3,0,.54.25.51.55-.82,10.21-2.68,21.22-5.59,33.03-1.24,5.02-3.53,10.4-4.77,14.92-1.06,3.84-2.66,6.65-4.66,11.2-.19.43-.64.68-1.1.61l-38.98-5.48c-.35-.05-.58-.38-.5-.72,1.57-6.6,2.71-13.43,3.41-20.49,1.09-10.94,1.88-21.94,2.37-33.01.02-.34.3-.61.64-.61h48.67Z"/>
  <path d="M607.47,403.84c.22,0,.4.19.38.41-.45,7.88-1.12,14.74-3.07,22.64-4.57,18.56-12.56,35.6-23.96,51.11-.21.28-.58.4-.91.28-6.47-2.22-12.13-3.93-17-5.14-5.91-1.47-12.55-4.39-18.71-5.3-.41-.06-.68-.46-.56-.86,1.38-4.65,3.68-8.72,5.18-13.46,2.91-9.17,4.61-15.01,5.12-17.52,2.41-11.85,4.11-22.41,5.11-31.7.03-.26.25-.46.51-.46h47.91Z"/>
  <path d="M416.43,546.42c0,.62-.81.87-1.15.35-.48-.71-2.45-3.25-5.91-7.61-6.91-8.72-13.04-20.27-18.51-31.86-2.16-4.57-4.04-9.33-5.63-14.27-1.05-3.24-3.43-10.58-7.15-22.02-.06-.19.08-.39.28-.4l37.58-2.05c.27-.02.49.19.49.46v77.4Z"/>
  <path d="M469.49,470.4c.34.01.57.36.45.69-2.69,7.28-4.18,13.68-6.99,21.02-7.72,20.16-17.41,38.98-30.94,55.4-.35.43-.74.72-1.16.87-.28.1-.58-.11-.58-.41v-78.86c0-.23.19-.41.42-.4l38.8,1.69Z"/>
  <path d="M453.35,543.49c-.13.07-.28-.08-.2-.21,2.52-4.27,5.24-7.94,7.95-12.51,4.42-7.47,8.42-15.42,12.01-23.85,1.52-3.59,2.71-6.7,3.58-9.35,1.4-4.25,3.13-7.8,4.43-12.58,1.17-4.27,2.51-8.44,4.03-12.51.12-.32.43-.52.77-.5,12.65,1.01,24.43,2.79,35.34,5.36.24.06.35.34.21.55-.41.6-2.09,3.12-5.04,7.57-8.2,12.33-17.45,23.31-27.75,32.96-7.53,7.05-17.27,14.35-29.23,21.9-1.52.96-4.11,2.14-6.1,3.17Z"/>
  <path d="M392.69,542.26c-.97-.23-1.89-.59-2.78-1.08-8.57-4.8-15.94-9.72-23.04-15.82-15.69-13.49-28.94-29.35-39.77-47.57-.12-.21,0-.48.25-.52l35.64-5.44c.45-.07.87.22.97.66,3.49,15.42,8.86,30.8,16.11,46.14,1.95,4.13,4.04,8.04,6.27,11.73,4.43,7.36,6.69,11.18,6.77,11.45.08.26-.15.51-.42.45Z"/>
  <path d="M368.89,546.29c-36.16-8.63-67.02-27.06-92.57-55.31-.42-.46-.19-1.2.42-1.35,6.53-1.64,11.94-4,18.78-5.54,3.66-.82,8.76-2.15,15.29-4,.5-.14,1.03.1,1.25.58.74,1.58,1.51,3.07,2.31,4.46,10.66,18.49,24.32,35,40.99,49.52,4.3,3.75,8.87,7.5,13.71,11.26.18.14.05.43-.18.38Z"/>
  <path d="M476.14,546.48c3.73-2.71,5.96-4.34,6.71-4.88,22.61-16.38,40.54-36.72,53.77-61.03.26-.47.8-.71,1.32-.57,8.49,2.27,13.26,3.52,14.32,3.77,6.57,1.54,11.26,3.65,17.85,5.8.59.19.79.92.38,1.38-10.11,11.39-21.43,21.26-33.97,29.62-16.07,10.71-34.18,19.08-54.33,25.11-2.15.64-4.1,1.07-5.85,1.3-.29.03-.43-.33-.2-.5Z"/>
  <path d="M251.72,721.04c0-.37.29-.67.66-.67l40.65-.14c5.69-.02,10.32,4.48,10.34,10.06v.1c.02,5.58-4.58,10.12-10.26,10.14l-40.65.14c-.37,0-.68-.3-.68-.67l-.06-18.96Z"/>
</svg>